<svg xmlns="http://www.w3.org/2000/svg" width="40" height="40" viewBox="0 0 40 40">
  <g id="Group_6214" data-name="Group 6214" transform="translate(-1422 -25)">
    <g id="Ellipse_11" data-name="Ellipse 11" transform="translate(1422 25)" fill="#fff" stroke="#707070" stroke-width="1">
      <circle cx="20" cy="20" r="20" stroke="none"/>
      <circle cx="20" cy="20" r="19.5" fill="none"/>
    </g>
    <path id="Icon_ionic-md-notifications" data-name="Icon ionic-md-notifications" d="M11.365,20.25a1.8,1.8,0,0,0,1.792-1.8H9.574A1.8,1.8,0,0,0,11.365,20.25Zm5.824-5.4V9.9a5.833,5.833,0,0,0-4.48-5.67V3.6a1.344,1.344,0,1,0-2.688,0v.63A5.833,5.833,0,0,0,5.542,9.9v4.95L3.75,16.65v.9H18.981v-.9Z" transform="translate(1431.085 34.217)" fill="#101010"/>
  </g>
</svg>
