<svg id="Group_6706" data-name="Group 6706" xmlns="http://www.w3.org/2000/svg" width="100" height="100" viewBox="0 0 100 100">
  <path id="Path_5" data-name="Path 5" d="M51,101a50,50,0,1,1,50-50A50.057,50.057,0,0,1,51,101ZM51,4.333A46.667,46.667,0,1,0,97.667,51,46.718,46.718,0,0,0,51,4.333Z" transform="translate(-1 -1)" fill="#d93134"/>
  <path id="Path_6" data-name="Path 6" d="M62.1,31.893,46.957,25.881l-1.248-4.238a5.649,5.649,0,0,1-2.939,2.442l1.152,3.369a1.771,1.771,0,0,0,1.056,1.492l16.077,6.391c2.862,1.143,5.372,5.193,5.372,8.665v-.025a1.6,1.6,0,1,0,3.18.007C69.6,38.964,66.236,33.549,62.1,31.893Z" transform="translate(11.941 33.375)" fill="#d93134"/>
  <path id="Path_1099" data-name="Path 1099" d="M50.276,31.893l15.145-6.012,1.248-4.238a5.65,5.65,0,0,0,2.939,2.442l-1.152,3.369A1.771,1.771,0,0,1,67.4,28.945L51.323,35.336C48.46,36.478,45.951,40.529,45.951,44v-.025a1.6,1.6,0,1,1-3.18.007C42.78,38.964,46.142,33.549,50.276,31.893Z" transform="translate(-24.314 33.375)" fill="#d93134"/>
  <path id="Path_7" data-name="Path 7" d="M27.088,47.071c-10.114,0-15.256-6.711-15.289-23.543-.007-4.273.448-8.6,4.465-12.625,2.558-2.566,6.2-3.865,10.823-3.865s8.265,1.3,10.827,3.869c4.018,4.021,4.473,8.352,4.465,12.625C42.344,40.36,37.2,47.071,27.088,47.071Zm0-36.393c-3.672,0-6.369.917-8.25,2.8-2.3,2.3-3.414,4.367-3.4,10.048.029,14.623,3.839,19.911,11.649,19.911S38.7,38.148,38.733,23.525c.011-5.681-1.1-7.744-3.4-10.048C33.456,11.6,30.76,10.678,27.088,10.678Z" transform="translate(22.912 12.021)" fill="#d93134"/>
</svg>
