<svg xmlns="http://www.w3.org/2000/svg" width="100" height="100" viewBox="0 0 100 100">
  <path id="Path_10" data-name="Path 10" d="M57.812,87.5H56.25V85.516a10.909,10.909,0,0,0,4.544-7.537,1.528,1.528,0,0,0,.056-.544c.025-.291.088-.572.088-.869a10.938,10.938,0,0,0-21.875,0c0,.313.066.578.088.869a1.528,1.528,0,0,0,.056.544,10.909,10.909,0,0,0,4.544,7.538V87.5H42.188a7.813,7.813,0,0,0-7.813,7.812v3.125A1.563,1.563,0,0,0,35.938,100H64.063a1.563,1.563,0,0,0,1.562-1.563V95.312A7.812,7.812,0,0,0,57.812,87.5ZM50,68.75a7.813,7.813,0,0,1,7.813,7.692,24.9,24.9,0,0,1-15.6,0A7.813,7.813,0,0,1,50,68.75ZM43,79.969a27.5,27.5,0,0,0,13.994,0,7.759,7.759,0,0,1-13.994,0Zm10.122,7.022v2.072a1.562,1.562,0,0,1-1.562,1.562H48.438a1.562,1.562,0,0,1-1.563-1.562V86.991A9.828,9.828,0,0,0,53.125,86.991ZM62.5,96.875h-25V95.312a4.688,4.688,0,0,1,4.688-4.687h1.85a4.687,4.687,0,0,0,4.4,3.125h3.125a4.687,4.687,0,0,0,4.4-3.125h1.85A4.688,4.688,0,0,1,62.5,95.312ZM23.437,87.5H21.875V85.516a10.909,10.909,0,0,0,4.544-7.537,1.528,1.528,0,0,0,.056-.544c.025-.291.087-.572.087-.869a10.937,10.937,0,0,0-21.875,0c0,.313.066.578.087.869a1.528,1.528,0,0,0,.056.544,10.909,10.909,0,0,0,4.544,7.538V87.5H7.813A7.813,7.813,0,0,0,0,95.312v3.125A1.563,1.563,0,0,0,1.563,100H29.687a1.563,1.563,0,0,0,1.563-1.563V95.312A7.812,7.812,0,0,0,23.437,87.5ZM15.625,68.75a7.813,7.813,0,0,1,7.813,7.692,24.9,24.9,0,0,1-15.6,0,7.813,7.813,0,0,1,7.788-7.691Zm-7,11.219a27.5,27.5,0,0,0,13.994,0,7.759,7.759,0,0,1-13.994,0ZM18.75,86.991v2.072a1.563,1.563,0,0,1-1.563,1.562H14.063A1.562,1.562,0,0,1,12.5,89.063V86.991a10.781,10.781,0,0,0,3.125.509A10.781,10.781,0,0,0,18.75,86.991Zm9.375,9.884h-25V95.312a4.688,4.688,0,0,1,4.688-4.687h1.85a4.687,4.687,0,0,0,4.4,3.125h3.125a4.687,4.687,0,0,0,4.4-3.125h1.85a4.688,4.688,0,0,1,4.688,4.688ZM92.188,0H7.813A7.812,7.812,0,0,0,0,7.813V48.438A7.812,7.812,0,0,0,7.813,56.25H92.188A7.813,7.813,0,0,0,100,48.438V7.813A7.813,7.813,0,0,0,92.188,0Zm4.688,48.438a4.687,4.687,0,0,1-4.687,4.687H7.813a4.687,4.687,0,0,1-4.688-4.687V7.813A4.687,4.687,0,0,1,7.813,3.125H92.188a4.688,4.688,0,0,1,4.688,4.688ZM82.031,10.156a3.125,3.125,0,0,0-3.125,3.125,3.078,3.078,0,0,0,.213,1.05L57.538,39.956a3.007,3.007,0,0,0-.313-.059L47.109,19.631a3.037,3.037,0,0,0,.547-1.662,3.125,3.125,0,1,0-6.25,0,2.988,2.988,0,0,0,.134.669L18.825,40.016a3.034,3.034,0,0,0-.856-.172,3.125,3.125,0,1,0,3.125,3.125,2.987,2.987,0,0,0-.134-.669L43.675,20.919a3.062,3.062,0,0,0,.65.131L54.45,41.3a3.038,3.038,0,0,0-.547,1.663,3.125,3.125,0,1,0,6.25,0,3.075,3.075,0,0,0-.209-1.034L81.537,16.306a2.95,2.95,0,0,0,.491.1,3.125,3.125,0,1,0,0-6.25ZM92.188,87.5H90.625V85.516a10.909,10.909,0,0,0,4.544-7.537,1.528,1.528,0,0,0,.056-.544c.025-.291.087-.572.087-.869a10.938,10.938,0,0,0-21.875,0c0,.313.066.578.088.869a1.528,1.528,0,0,0,.056.544,10.909,10.909,0,0,0,4.544,7.538V87.5H76.563a7.813,7.813,0,0,0-7.813,7.812v3.125A1.563,1.563,0,0,0,70.313,100H98.437A1.563,1.563,0,0,0,100,98.437V95.312A7.812,7.812,0,0,0,92.188,87.5ZM84.375,68.75a7.813,7.813,0,0,1,7.813,7.692,24.9,24.9,0,0,1-15.6,0,7.813,7.813,0,0,1,7.788-7.691Zm-7,11.219a27.5,27.5,0,0,0,13.994,0,7.759,7.759,0,0,1-13.994,0ZM87.5,86.991v2.072a1.563,1.563,0,0,1-1.563,1.562H82.812a1.563,1.563,0,0,1-1.562-1.562V86.991a9.828,9.828,0,0,0,6.25,0Zm9.375,9.884h-25V95.312a4.688,4.688,0,0,1,4.688-4.687h1.85a4.687,4.687,0,0,0,4.4,3.125h3.125a4.687,4.687,0,0,0,4.4-3.125h1.85a4.688,4.688,0,0,1,4.688,4.688Z" fill="#d93134"/>
</svg>
