<svg xmlns="http://www.w3.org/2000/svg" width="100" height="100" viewBox="0 0 100 100">
  <path id="Path_3" data-name="Path 3" d="M49.391,36.127a1.465,1.465,0,0,0,1.218,0,19.575,19.575,0,0,0,6.758-5.071,16.768,16.768,0,0,0,4.109-10.968v-6.5A1.465,1.465,0,0,0,60.1,12.128a15.9,15.9,0,0,1-6.983-2.039,14.323,14.323,0,0,1-2.159-1.536,1.465,1.465,0,0,0-1.913,0,14.3,14.3,0,0,1-2.159,1.536A15.9,15.9,0,0,1,39.9,12.128a1.465,1.465,0,0,0-1.379,1.462v6.5a16.767,16.767,0,0,0,4.11,10.968,19.572,19.572,0,0,0,6.758,5.071Zm-7.938-21.2a18.508,18.508,0,0,0,6.9-2.3A17.345,17.345,0,0,0,50,11.539a17.351,17.351,0,0,0,1.645,1.084,18.508,18.508,0,0,0,6.9,2.3v5.165a13.874,13.874,0,0,1-3.413,9.071A16.542,16.542,0,0,1,50,33.17a16.54,16.54,0,0,1-5.134-4.01,13.876,13.876,0,0,1-3.413-9.071ZM99.571,45.874a1.465,1.465,0,0,0-2.072,0l-8.469,8.469L68.943,33.833a22.076,22.076,0,0,0,3.039-8.357l5.709-5.75a1.465,1.465,0,0,0-2.079-2.064l-3.42,3.444a22.221,22.221,0,0,0-44.4.391l-3.973-3.854a1.465,1.465,0,1,0-2.04,2.1l6.3,6.111a22.085,22.085,0,0,0,3.072,8.128L11.092,54.466,2.5,45.874A1.465,1.465,0,1,0,.429,47.946l9.379,9.379a1.424,1.424,0,0,0,.518.518l1.29,1.29a7.272,7.272,0,0,0,5.179,2.146A7.354,7.354,0,0,0,18.811,61a20.881,20.881,0,0,0,.323,2.965A6.316,6.316,0,0,0,17.3,65.24l-3.216,3.216a6.348,6.348,0,0,0,4.488,10.836c.2,0,.394-.01.588-.028A6.343,6.343,0,0,0,25.477,86.2c.2,0,.392-.01.585-.027-.018.193-.027.388-.027.585A6.342,6.342,0,0,0,32.383,93.1q.293,0,.585-.027c-.018.194-.028.391-.028.588A6.306,6.306,0,0,0,34.8,98.148h0a6.355,6.355,0,0,0,8.977,0l2.115-2.115,2.115,2.116a6.345,6.345,0,0,0,10.805-5.077q.294.027.589.027a6.343,6.343,0,0,0,6.348-6.344c0-.2-.01-.392-.027-.585.193.018.388.027.585.027a6.348,6.348,0,0,0,6.348-6.347c0-.2-.01-.392-.027-.586.193.018.388.027.585.027A6.348,6.348,0,0,0,77.7,68.456L75.924,66.68a21.458,21.458,0,0,0,5.2-5.7,7.349,7.349,0,0,0,2.079.3,7.272,7.272,0,0,0,5.178-2.146L99.571,47.946a1.465,1.465,0,0,0,0-2.072ZM30.908,25c0-.021-.006-.042-.009-.063A19.293,19.293,0,1,1,65.865,33.19l-.01.014A19.285,19.285,0,0,1,30.908,25ZM16.795,58.35a4.363,4.363,0,0,1-3.107-1.288l-.524-.524L32.891,36.393a22.413,22.413,0,0,0,3.949,3.729L19.9,57.063A4.362,4.362,0,0,1,16.795,58.35Zm4.194,17.012a3.418,3.418,0,0,1-4.834,0h0a3.418,3.418,0,0,1,0-4.834l3.216-3.216A3.418,3.418,0,1,1,24.2,72.145Zm4.488,7.906a3.4,3.4,0,0,1-2.417-1h0a3.422,3.422,0,0,1,0-4.834l3.216-3.216a3.418,3.418,0,1,1,4.834,4.834l-3.216,3.216A3.4,3.4,0,0,1,25.477,83.268Zm4.488,5.9a3.418,3.418,0,0,1,0-4.834l3.216-3.216a3.418,3.418,0,0,1,4.834,4.834L34.8,89.172a3.421,3.421,0,0,1-4.834,0Zm14.955,3.689-3.216,3.216a3.421,3.421,0,0,1-4.834,0h0a3.418,3.418,0,0,1,0-4.834l3.216-3.216a3.418,3.418,0,0,1,4.834,4.834ZM76.63,72.944a3.418,3.418,0,0,1-5.835,2.417l-10.5-10.5a1.465,1.465,0,1,0-2.072,2.072l10.5,10.5a3.418,3.418,0,1,1-4.834,4.834l-10.5-10.5a1.465,1.465,0,1,0-2.072,2.072l10.5,10.5a3.418,3.418,0,1,1-4.834,4.834l-10.5-10.5a1.465,1.465,0,0,0-2.072,2.071l10.5,10.5a3.418,3.418,0,1,1-4.833,4.834l-2.221-2.222A6.348,6.348,0,0,0,42.5,84.1c-.2,0-.392.01-.585.027.018-.193.027-.388.027-.585A6.348,6.348,0,0,0,35.6,77.191c-.2,0-.392.01-.585.027.018-.193.027-.388.027-.585a6.348,6.348,0,0,0-6.347-6.348c-.2,0-.392.01-.586.027.018-.193.027-.388.027-.585A6.339,6.339,0,0,0,22,63.389a18.019,18.019,0,0,1-.261-4.026l.228-.228,0,0h0L39.305,41.8c.021-.021.04-.044.06-.066a22.055,22.055,0,0,0,7.391,2.478L37.9,54.107a4.554,4.554,0,0,0,.173,6.253,8.322,8.322,0,0,0,11.755,0l7.814-7.816L75.628,70.527a3.4,3.4,0,0,1,1,2.417Zm.472-11.4a18.76,18.76,0,0,1-3.27,3.045L58.917,49.673a1.374,1.374,0,0,1-.237-.236,1.464,1.464,0,0,0-2.071,0l-8.85,8.852a5.389,5.389,0,0,1-7.612,0,1.622,1.622,0,0,1-.062-2.228L50.48,44.444a22.074,22.074,0,0,0,10.207-2.738,7.4,7.4,0,0,0,.629.716L78.026,59.133c.162.162.331.315.505.46A18.64,18.64,0,0,1,77.1,61.542Zm9.21-4.479a4.391,4.391,0,0,1-6.213,0L63.387,40.351q-.113-.114-.217-.236a22.412,22.412,0,0,0,4.048-3.856l19.74,20.156Z" transform="translate(0 -0.01)" fill="#d93134"/>
</svg>
