<svg xmlns="http://www.w3.org/2000/svg" width="100" height="99.992" viewBox="0 0 100 99.992">
  <path id="Path_11" data-name="Path 11" d="M45.092,75.957v-15.5A18.681,18.681,0,0,0,39.323,47L22.93,31.37a4.293,4.293,0,0,0-3.716-1.106l1.362-19.884A5.434,5.434,0,0,0,9.951,8.46L.371,40.394a9.146,9.146,0,0,0,1.834,8.624L18.813,68.351A8.616,8.616,0,0,1,20.9,73.961v2.077a6.514,6.514,0,0,0-3.234,5.619v16.87a1.465,1.465,0,0,0,2.929,0V83.93H45.539v14.6a1.465,1.465,0,0,0,2.929,0V81.657a6.517,6.517,0,0,0-3.377-5.7ZM4.427,47.109a6.229,6.229,0,0,1-1.25-5.874L12.757,9.3a2.517,2.517,0,0,1,2.4-1.776,2.486,2.486,0,0,1,1.836.8,2.45,2.45,0,0,1,.662,1.858L16.136,32.336a8.583,8.583,0,0,0,.736,11.4l9.095,8.97a1.465,1.465,0,1,0,2.057-2.086l-9.1-8.97a5.656,5.656,0,0,1-.051-8L19,33.519a1.366,1.366,0,0,1,1.906-.028L37.3,49.122a15.738,15.738,0,0,1,4.862,11.336V75.147c-.078,0-.155-.006-.233-.006H24.2c-.126,0-.251,0-.376.012V73.961a11.547,11.547,0,0,0-2.789-7.52ZM20.654,81A3.608,3.608,0,0,1,24.2,78.071H41.929A3.608,3.608,0,0,1,45.476,81ZM81.147,68.351,97.755,49.018a9.146,9.146,0,0,0,1.834-8.625L90.01,8.46a5.433,5.433,0,0,0-10.626,1.92l1.362,19.884a4.294,4.294,0,0,0-3.716,1.106L60.638,47a18.68,18.68,0,0,0-5.77,13.456v15.5a6.516,6.516,0,0,0-3.376,5.7v16.87a1.465,1.465,0,0,0,2.929,0V83.93H79.371v14.6a1.465,1.465,0,0,0,2.929,0V81.657a6.514,6.514,0,0,0-3.234-5.619V73.961a8.616,8.616,0,0,1,2.082-5.61ZM79.307,81H54.485a3.608,3.608,0,0,1,3.547-2.929H75.76A3.608,3.608,0,0,1,79.307,81Zm-.382-14.559a11.547,11.547,0,0,0-2.789,7.52v1.192q-.188-.011-.376-.012H58.031c-.078,0-.156,0-.234.006V60.458a15.738,15.738,0,0,1,4.862-11.336L79.052,33.49a1.366,1.366,0,0,1,1.9.028l.126.128a5.656,5.656,0,0,1-.052,8l-9.095,8.97A1.465,1.465,0,0,0,73.993,52.7l9.095-8.97a8.583,8.583,0,0,0,.736-11.4L82.307,10.179a2.45,2.45,0,0,1,.662-1.858,2.486,2.486,0,0,1,1.836-.8A2.517,2.517,0,0,1,87.2,9.3l9.579,31.934a6.229,6.229,0,0,1-1.25,5.874ZM71.076,23.624A13.839,13.839,0,0,0,51.5,4.053L49.98,5.577,48.456,4.053A13.839,13.839,0,1,0,28.885,23.624L47.376,42.115a3.687,3.687,0,0,0,5.209,0ZM49.447,40.044,30.956,21.553A10.91,10.91,0,1,1,46.384,6.124L48,7.743a2.8,2.8,0,0,0,3.954,0l1.619-1.619A10.91,10.91,0,0,1,69,21.553L50.513,40.044A.755.755,0,0,1,49.447,40.044ZM57.4,17.2H54.374V14.176a3.422,3.422,0,0,0-3.418-3.418H49a3.422,3.422,0,0,0-3.418,3.418V17.2H42.559a3.422,3.422,0,0,0-3.418,3.418v1.953a3.422,3.422,0,0,0,3.418,3.418h3.027v3.027A3.422,3.422,0,0,0,49,32.436h1.953a3.422,3.422,0,0,0,3.418-3.418V25.991H57.4a3.422,3.422,0,0,0,3.418-3.418V20.62A3.422,3.422,0,0,0,57.4,17.2Zm.488,5.371a.489.489,0,0,1-.488.488H52.91a1.465,1.465,0,0,0-1.465,1.465v4.492a.489.489,0,0,1-.488.488H49a.489.489,0,0,1-.488-.488V24.526a1.465,1.465,0,0,0-1.465-1.465H42.559a.489.489,0,0,1-.488-.488V20.62a.489.489,0,0,1,.488-.488h4.492a1.465,1.465,0,0,0,1.465-1.465V14.176A.489.489,0,0,1,49,13.687h1.953a.489.489,0,0,1,.488.488v4.492a1.465,1.465,0,0,0,1.465,1.465H57.4a.489.489,0,0,1,.488.488Z" transform="translate(0.02 0)" fill="#d93134"/>
</svg>
